<svg width="155" height="221" viewBox="0 0 155 221" fill="none" xmlns="http://www.w3.org/2000/svg">
<path d="M135.6 76C142.779 70.7939 148.125 63.4492 150.874 55.0183C153.623 46.5873 153.632 37.5027 150.901 29.0659C148.17 20.6292 142.839 13.2732 135.672 8.052C128.504 2.83077 119.868 0.0121618 111 0H43C34.1323 0.0121618 25.496 2.83077 18.3284 8.052C11.1607 13.2732 5.82959 20.6292 3.09875 29.0659C0.367904 37.5027 0.377483 46.5873 3.12611 55.0183C5.87474 63.4492 11.2214 70.7939 18.4 76C13.0105 79.8815 8.62101 84.9886 5.59342 90.9002C2.56584 96.8117 0.986938 103.358 0.986938 110C0.986938 116.642 2.56584 123.188 5.59342 129.1C8.62101 135.011 13.0105 140.118 18.4 144C12.5704 148.213 7.92026 153.852 4.89525 160.377C1.87025 166.903 0.571707 174.096 1.12405 181.267C1.6764 188.438 4.06113 195.348 8.04973 201.333C12.0383 207.318 17.4972 212.179 23.9032 215.449C30.3092 218.719 37.4477 220.29 44.6348 220.01C51.8218 219.73 58.8165 217.609 64.9488 213.85C71.081 210.092 76.1452 204.821 79.6561 198.544C83.1671 192.266 85.0071 185.192 85 178V142.9C89.3595 146.578 94.4225 149.33 99.8803 150.988C105.338 152.645 111.076 153.173 116.745 152.541C122.414 151.908 127.894 150.127 132.852 147.306C137.81 144.486 142.141 140.685 145.582 136.136C149.023 131.587 151.501 126.384 152.866 120.846C154.23 115.307 154.452 109.549 153.518 103.922C152.584 98.2952 150.513 92.9175 147.433 88.1169C144.352 83.3164 140.326 79.1936 135.6 76ZM137 42C136.974 48.8875 134.226 55.4854 129.356 60.3557C124.485 65.2259 117.888 67.9737 111 68H85V16H111C117.888 16.0263 124.485 18.7741 129.356 23.6443C134.226 28.5146 136.974 35.1125 137 42ZM17 42C17.0263 35.1125 19.7741 28.5146 24.6443 23.6443C29.5146 18.7741 36.1125 16.0263 43 16H69V68H43C36.1125 67.9737 29.5146 65.2259 24.6443 60.3557C19.7741 55.4854 17.0263 48.8875 17 42V42ZM17 110C17.0263 103.112 19.7741 96.5146 24.6443 91.6443C29.5146 86.7741 36.1125 84.0263 43 84H69V136H43C36.1125 135.974 29.5146 133.226 24.6443 128.356C19.7741 123.485 17.0263 116.888 17 110ZM43 204C36.1044 204 29.4912 201.261 24.6152 196.385C19.7393 191.509 17 184.896 17 178C17 171.104 19.7393 164.491 24.6152 159.615C29.4912 154.739 36.1044 152 43 152H69V178C68.9737 184.888 66.2259 191.485 61.3557 196.356C56.4854 201.226 49.8875 203.974 43 204V204ZM111 136C104.104 136 97.4912 133.261 92.6152 128.385C87.7393 123.509 85 116.896 85 110C85 103.104 87.7393 96.4912 92.6152 91.6152C97.4912 86.7393 104.104 84 111 84C117.896 84 124.509 86.7393 129.385 91.6152C134.261 96.4912 137 103.104 137 110C137 116.896 134.261 123.509 129.385 128.385C124.509 133.261 117.896 136 111 136V136Z" fill="black"/>
</svg>
